Coordinates
version=1
nRows=34
nColumns=19
inDegrees=yes

Units are S.I. units (second, meters, Newtons, ...)
If the header above contains a line with 'inDegrees', this indicates whether rotational values are in degrees (yes) or radians (no).

endheader
time	pelvis_tilt	pelvis_list	pelvis_rotation	pelvis_tx	pelvis_ty	pelvis_tz	hip_flexion_r	hip_adduction_r	hip_rotation_r	knee_angle_r	knee_angle_r_beta	ankle_angle_r	hip_flexion_l	hip_adduction_l	hip_rotation_l	knee_angle_l	knee_angle_l_beta	ankle_angle_l
     12.96666667	     -6.03302627	      3.79697689	      5.63011422	      2.19478818	      1.07316554	      1.01166858	     -5.73211191	     -7.46443155	     -9.26481690	     46.55647412	      0.81256376	    -21.11289164	     26.06890506	      6.48868377	     -3.54601694	     18.82371237	      0.32853576	      7.16244609
     12.97333333	     -5.40074582	      3.82868785	      5.69819294	      2.19416984	      1.06865578	      1.01148528	     -5.62225324	     -7.66931805	     -8.93550078	     49.19007799	      0.85852882	    -20.56369249	     26.21421125	      6.19476077	     -4.18253412	     21.54836975	      0.37609000	      7.18534791
     12.98000000	     -4.87261135	      3.85517320	      5.76492015	      2.19331310	      1.06358735	      1.01139165	     -5.29265369	     -7.85337679	     -8.51598506	     51.93094590	      0.90636599	    -20.01988188	     26.53383822	      5.88430520	     -4.73365359	     24.52773641	      0.42808976	      7.35749983
     12.98666667	     -4.26726567	      3.88292112	      5.77899711	      2.19230930	      1.05836878	      1.01138794	     -4.97741413	     -8.03396455	     -8.06454039	     54.66980823	      0.95416816	    -19.48227766	     26.74363881	      5.54364229	     -5.25134111	     27.57160179	      0.48121523	      7.74916921
     12.99333333	     -3.71791359	      3.91132518	      5.78136359	      2.19104019	      1.05285645	      1.01145880	     -4.50818901	     -8.22357432	     -7.60456133	     57.45448742	      1.00276998	    -18.93827838	     26.98416594	      5.21665174	     -5.67018528	     30.63431456	      0.53466965	      8.39504989
     13.00000000	     -2.77604583	      4.17747862	      5.87264631	      2.18966717	      1.04775438	      1.01144971	     -4.50546237	     -8.69724251	     -7.44381579	     60.14481455	      1.04972504	    -18.46099535	     26.64611431	      5.18276250	     -5.91593836	     33.50195741	      0.58471946	      9.33199578
     13.00666667	     -2.78961206	      4.00276519	      5.73424261	      2.18777080	      1.04142605	      1.01184263	     -3.11024094	     -8.64326903	     -6.62041210	     63.07898241	      1.10093593	    -17.81460166	     27.42318283	      4.67898194	     -6.20480069	     36.48785915	      0.63683328	     10.48092404
     13.01333333	     -2.01857199	      4.28575965	      5.81502928	      2.18599206	      1.03621586	      1.01198621	     -2.76291284	     -9.09434921	     -6.34732457	     65.73981756	      1.14737627	    -17.21509786	     27.08569269	      4.73941119	     -6.27634908	     39.08902995	      0.68223227	     11.91117531
     13.02000000	     -2.25934890	      4.21588861	      5.70257185	      2.18377215	      1.02991485	      1.01249652	     -0.99600779	     -9.12208682	     -5.52744614	     68.59325258	      1.19717810	    -16.47052315	     27.84996593	      4.43992877	     -6.41000049	     41.66552901	      0.72720067	     13.45585429
     13.02666667	     -2.21714379	      4.34722814	      5.72650396	      2.18152224	      1.02429452	      1.01286219	      0.40647749	     -9.38668794	     -5.00733000	     71.27185883	      1.24392860	    -15.71804929	     28.08421077	      4.44942997	     -6.34306986	     43.87037484	      0.76568249	     15.14309400
     13.03333333	     -2.29076580	      4.51030856	      5.72748929	      2.17920655	      1.01893716	      1.01333635	      1.99944914	     -9.67714129	     -4.45579334	     73.85612610	      1.28903257	    -14.91943636	     28.27119291	      4.50527921	     -6.28683891	     45.78407406	      0.79908284	     16.84064640
     13.04000000	     -2.51506323	      4.63974393	      5.75653792	      2.17684980	      1.01386959	      1.01380904	      3.80729631	     -9.92916386	     -3.92931171	     76.30892735	      1.33184203	    -14.11878158	     28.45635343	      4.58319143	     -6.14072520	     47.41002989	      0.82746112	     18.54681782
     13.04666667	     -2.79489907	      4.80200149	      5.76273081	      2.17453414	      1.00927692	      1.01434890	      5.71511887	    -10.21832533	     -3.40536505	     78.60225120	      1.37186808	    -13.29229206	     28.51598735	      4.68837936	     -6.03667126	     48.72493680	      0.85041057	     20.14014354
     13.05333333	     -2.92688048	      4.94462068	      5.79643100	      2.17237326	      1.00553692	      1.01484680	      7.43353529	    -10.45613617	     -2.96104256	     80.62631418	      1.40719465	    -12.40891785	     28.21258375	      4.82004224	     -5.79951936	     49.69471134	      0.86733633	     21.72344839
     13.06000000	     -3.62865642	      4.97490161	      5.75719433	      2.17020706	      1.00156196	      1.01538626	      9.90808625	    -10.62613430	     -2.42146672	     82.57680591	      1.44123715	    -11.73488769	     28.44332499	      4.79341023	     -5.74749067	     50.52761825	      0.88187330	     23.01145123
     13.06666667	     -3.96136945	      4.97927396	      5.76290531	      2.16823990	      0.99880390	      1.01584011	     11.89660778	    -10.74323629	     -2.06008911	     84.17384287	      1.46911070	    -11.01613852	     28.08269938	      4.77215542	     -5.54838775	     51.02647556	      0.89058000	     24.22660842
     13.07333333	     -4.35620220	      4.92075849	      5.71592622	      2.16647284	      0.99665080	      1.01626366	     13.95634486	    -10.79259816	     -1.71229017	     85.51674206	      1.49254871	    -10.34703291	     27.64715548	      4.67664131	     -5.38075860	     51.27779390	      0.89496634	     25.28696756
     13.08000000	     -4.62196112	      4.80145015	      5.66580475	      2.16491547	      0.99536698	      1.01662179	     15.81668448	    -10.78657265	     -1.49504212	     86.54893445	      1.51056387	     -9.71525949	     26.93413024	      4.51065415	     -5.20104518	     51.28311216	      0.89505916	     26.20620293
     13.08666667	     -4.56408849	      4.61053928	      5.69126006	      2.16358548	      0.99521728	      1.01679457	     17.20982368	    -10.72679074	     -1.52346227	     87.22054270	      1.52228565	     -9.13431639	     25.74526978	      4.30782853	     -4.87261809	     51.05105393	      0.89100898	     26.98416518
     13.09333333	     -4.67203089	      4.42445101	      5.55613906	      2.16245839	      0.99541875	      1.01711033	     18.79248610	    -10.64286890	     -1.44328329	     87.68827007	      1.53044903	     -8.46349786	     24.61818629	      4.00474072	     -4.83673804	     50.62079036	      0.88349946	     27.59030277
     13.10000000	     -4.72878386	      4.11932721	      5.54964807	      2.16150415	      0.99645456	      1.01713862	     20.19126554	    -10.48870179	     -1.63515413	     87.79878910	      1.53237795	     -7.98609271	     23.34853547	      3.68947741	     -4.54902544	     49.98438856	      0.87239215	     27.96648756
     13.10666667	     -4.79114976	      3.80256542	      5.47551726	      2.16064565	      0.99793622	      1.01722061	     21.55273342	    -10.29339699	     -1.83337937	     87.69269046	      1.53052618	     -7.39228672	     22.00698363	      3.33870274	     -4.33462449	     49.19690738	      0.85864802	     28.30578687
     13.11333333	     -4.34325123	      3.56101215	      5.16087480	      2.16004073	      1.00064275	      1.01763397	     22.28649394	     -9.99656200	     -1.86396677	     87.28287590	      1.52337357	     -6.61848254	     19.95094778	      2.92421379	     -4.40694008	     48.11839322	      0.83982439	     28.56722109
     13.12000000	     -3.97911933	      3.25971698	      5.07752911	      2.15954673	      1.00382760	      1.01767400	     22.94695392	     -9.77246214	     -2.24411072	     86.58702966	      1.51122876	     -5.96426952	     17.92689463	      2.59315920	     -4.17171483	     46.87779588	      0.81817188	     28.58209710
     13.12666667	     -3.69123794	      2.94916407	      4.93409079	      2.15915873	      1.00735014	      1.01780662	     23.62980629	     -9.49195339	     -2.60141471	     85.67956277	      1.49539047	     -5.27239982	     15.92437740	      2.23725228	     -4.02901700	     45.50047195	      0.79413305	     28.38657221
     13.13333333	     -3.42886579	      2.64447864	      4.79339429	      2.15890546	      1.01121312	      1.01793563	     24.24087632	     -9.20055956	     -2.99668700	     84.55558950	      1.47577344	     -4.51243694	     13.88977108	      1.90833188	     -3.87848538	     43.98725137	      0.76772237	     27.98457980
     13.14000000	     -3.16874321	      2.35241161	      4.64250139	      2.15877995	      1.01545179	      1.01808441	     24.76098431	     -8.90099342	     -3.42066320	     83.21584292	      1.45239045	     -3.79941318	     11.80656393	      1.60354734	     -3.73310898	     42.35016158	      0.73914976	     27.32491471
     13.14666667	     -2.96145054	      2.07132931	      4.47988004	      2.15880499	      1.01991721	      1.01827766	     25.24544302	     -8.58424564	     -3.85160414	     81.67881870	      1.42556432	     -3.05490903	      9.75486557	      1.31774407	     -3.60728624	     40.63821678	      0.70927069	     26.39002348
     13.15333333	     -2.81217234	      1.80014751	      4.28884245	      2.15895460	      1.02456644	      1.01850396	     25.70581967	     -8.24118999	     -4.26488193	     79.95157132	      1.39541816	     -2.32098098	      7.75445086	      1.04397761	     -3.53405535	     38.87515314	      0.67849942	     25.16533604
     13.16000000	     -2.74009397	      1.53351789	      4.06743807	      2.15929001	      1.02932198	      1.01876579	     26.15878726	     -7.87647575	     -4.66393126	     78.04489697	      1.36214042	     -1.61068319	      5.84595035	      0.78137336	     -3.49667307	     37.10110112	      0.64753637	     23.62544959
     13.16666667	     -2.69770823	      1.25273366	      3.85675980	      2.15974471	      1.03419390	      1.01905006	     26.54477663	     -7.47635676	     -5.09727897	     75.94977658	      1.32557367	     -0.96929912	      3.99716157	      0.49547400	     -3.49943076	     35.33800405	      0.61676452	     21.82377794
     13.17333333	     -2.75357706	      0.98088230	      3.60650699	      2.16035448	      1.03904885	      1.01936628	     26.94951526	     -7.05167414	     -5.49130632	     73.68241788	      1.28600079	     -0.37504924	      2.30318879	      0.21996708	     -3.57560069	     33.63393482	      0.58702290	     19.73084333
     13.18000000	     -3.57847578	      0.69757653	      3.46566987	      2.16103878	      1.04287034	      1.01952727	     28.13299580	     -6.75341548	     -6.04550470	     71.35716174	      1.24541742	      0.15346280	      1.62003606	     -0.04614505	     -3.64406300	     32.23876840	      0.56267266	     17.53379535
     13.18666667	     -3.08998832	      0.43667509	      3.01596331	      2.16198158	      1.04862646	      1.02010073	     27.73299012	     -6.10378603	     -6.20894381	     68.63620900	      1.19792783	      0.61745225	     -0.63878156	     -0.34568861	     -3.96945430	     30.49436775	      0.53222712	     14.84358412
